<?xml version="1.0" encoding="UTF-8"?>
<svg width="207px" height="33px" viewBox="0 0 207 33" version="1.1" xmlns="http://www.w3.org/2000/svg" xmlns:xlink="http://www.w3.org/1999/xlink">
    <title>Untitled 5</title>
    <g id="Page-1" stroke="none" stroke-width="1" fill="none" fill-rule="evenodd">
        <g id="logo" transform="translate(0.500000, 0.000000)" fill="#0DBD8B">
            <path d="M15.2197,30.4395 C23.6254,30.4395 30.4395,23.6254 30.4395,15.2197 C30.4395,6.81411 23.6254,0 15.2197,0 C6.8141,0 0,6.81411 0,15.2197 C0,23.6254 6.8141,30.4395 15.2197,30.4395 Z M12.4374,7.09153 C12.4374,6.47719 12.9365,5.97917 13.5521,5.97917 C17.7246,5.97917 21.1071,9.35464 21.1071,13.5185 C21.1071,14.1329 20.608,14.6309 19.9924,14.6309 C19.3768,14.6309 18.8777,14.1329 18.8777,13.5185 C18.8777,10.5833 16.4934,8.2039 13.5521,8.2039 C12.9365,8.2039 12.4374,7.70588 12.4374,7.09153 Z M24.4597,13.5185 C24.4597,12.9042 23.9607,12.4062 23.345,12.4062 C22.7294,12.4062 22.2303,12.9042 22.2303,13.5185 C22.2303,16.4537 19.846,18.8331 16.9047,18.8331 C16.2891,18.8331 15.79,19.3312 15.79,19.9455 C15.79,20.5598 16.2891,21.0579 16.9047,21.0579 C21.0772,21.0579 24.4597,17.6824 24.4597,13.5185 Z M18.0202,23.3479 C18.0202,23.9623 17.5212,24.4603 16.9056,24.4603 C12.733,24.4603 9.3505,21.0848 9.3505,16.9209 C9.3505,16.3066 9.8496,15.8086 10.4652,15.8086 C11.0808,15.8086 11.5799,16.3066 11.5799,16.9209 C11.5799,19.8561 13.9643,22.2356 16.9056,22.2356 C17.5212,22.2356 18.0202,22.7336 18.0202,23.3479 Z M5.9791,16.9209 C5.9791,17.5352 6.4782,18.0333 7.0938,18.0333 C7.7094,18.0333 8.2085,17.5352 8.2085,16.9209 C8.2085,13.9857 10.5929,11.6063 13.5341,11.6063 C14.1498,11.6063 14.6488,11.1083 14.6488,10.4939 C14.6488,9.87957 14.1498,9.38154 13.5341,9.38154 C9.3616,9.38154 5.9791,12.757 5.9791,16.9209 Z" id="Shape"></path>
        </g>
        <text id="Files-SDK" font-family="Inter-Regular_Light, Inter" font-size="24" font-weight="300" fill="#000000">
            <tspan x="38" y="24">Files SDK</tspan>
        </text>
    </g>
</svg>