<?xml version="1.0" encoding="UTF-8"?>
<svg width="141px" height="31px" viewBox="0 0 141 31" version="1.1" xmlns="http://www.w3.org/2000/svg" xmlns:xlink="http://www.w3.org/1999/xlink">
    <title>Slice 1</title>
    <g id="Page-1" stroke="none" stroke-width="1" fill="none" fill-rule="evenodd">
        <g id="logo" transform="translate(0.500000, 0.000000)" fill-rule="nonzero">
            <g fill="#0DBD8B" id="Shape">
                <path d="M15.2197,30.4395 C23.6254,30.4395 30.4395,23.6254 30.4395,15.2197 C30.4395,6.81411 23.6254,0 15.2197,0 C6.8141,0 0,6.81411 0,15.2197 C0,23.6254 6.8141,30.4395 15.2197,30.4395 Z M12.4374,7.09153 C12.4374,6.47719 12.9365,5.97917 13.5521,5.97917 C17.7246,5.97917 21.1071,9.35464 21.1071,13.5185 C21.1071,14.1329 20.608,14.6309 19.9924,14.6309 C19.3768,14.6309 18.8777,14.1329 18.8777,13.5185 C18.8777,10.5833 16.4934,8.2039 13.5521,8.2039 C12.9365,8.2039 12.4374,7.70588 12.4374,7.09153 Z M24.4597,13.5185 C24.4597,12.9042 23.9607,12.4062 23.345,12.4062 C22.7294,12.4062 22.2303,12.9042 22.2303,13.5185 C22.2303,16.4537 19.846,18.8331 16.9047,18.8331 C16.2891,18.8331 15.79,19.3312 15.79,19.9455 C15.79,20.5598 16.2891,21.0579 16.9047,21.0579 C21.0772,21.0579 24.4597,17.6824 24.4597,13.5185 Z M18.0202,23.3479 C18.0202,23.9623 17.5212,24.4603 16.9056,24.4603 C12.733,24.4603 9.3505,21.0848 9.3505,16.9209 C9.3505,16.3066 9.8496,15.8086 10.4652,15.8086 C11.0808,15.8086 11.5799,16.3066 11.5799,16.9209 C11.5799,19.8561 13.9643,22.2356 16.9056,22.2356 C17.5212,22.2356 18.0202,22.7336 18.0202,23.3479 Z M5.9791,16.9209 C5.9791,17.5352 6.4782,18.0333 7.0938,18.0333 C7.7094,18.0333 8.2085,17.5352 8.2085,16.9209 C8.2085,13.9857 10.5929,11.6063 13.5341,11.6063 C14.1498,11.6063 14.6488,11.1083 14.6488,10.4939 C14.6488,9.87957 14.1498,9.38154 13.5341,9.38154 C9.3616,9.38154 5.9791,12.757 5.9791,16.9209 Z"></path>
            </g>
            <g id="Files-SDK" transform="translate(40.227242, 6.272930)" fill="#000000">
                <polygon id="Path" points="0 17.7270699 0.545448303 17.7270699 0.545448303 9.27262115 8.55672026 9.27262115 8.55672026 8.72717285 0.545448303 8.72717285 0.545448303 0.818172455 9.37489271 0.818172455 9.37489271 0.272724152 0 0.272724152"></polygon>
                <path d="M13.7045494,17.7270699 L14.2499977,17.7270699 L14.2499977,4.63631058 L13.7045494,4.63631058 L13.7045494,17.7270699 Z M13.9772735,2.24997425 C14.2755655,2.24997425 14.5227218,2.00281799 14.5227218,1.70452595 C14.5227218,1.40623391 14.2755655,1.15907764 13.9772735,1.15907764 C13.6789815,1.15907764 13.4318252,1.40623391 13.4318252,1.70452595 C13.4318252,2.00281799 13.6789815,2.24997425 13.9772735,2.24997425 Z" id="Shape"></path>
                <polygon id="Path" points="19.4999984 0.272724152 18.9545501 0.272724152 18.9545501 17.7270699 19.4999984 17.7270699"></polygon>
                <path d="M29.045403,17.999794 C31.5936693,17.999794 32.9999032,16.3975396 33.5794421,15.4089146 L33.1362653,15.1020999 C32.6589981,15.8861818 31.4573073,17.4543457 29.045403,17.4543457 C25.755668,17.4543457 23.9062573,14.5992647 23.8977347,11.1816902 L34.1248904,11.1816902 L34.1248904,10.6362419 C34.1248904,7.25275791 31.8152577,4.43176746 28.7726789,4.43176746 C25.6789643,4.43176746 23.3522864,7.36355209 23.3522864,11.2157807 C23.3522864,15.0680094 25.6107833,17.999794 29.045403,17.999794 Z M23.9147799,10.6362419 C24.1448909,7.38059735 26.1988447,4.97721577 28.7726789,4.97721577 C31.4232167,4.97721577 33.5794421,7.49139154 33.5794421,10.6362419 L23.9147799,10.6362419 Z" id="Shape"></path>
                <path d="M45.8180968,7.39764261 C45.1788995,5.43743777 43.8152788,4.43176746 41.7954155,4.43176746 C39.4090792,4.43176746 37.7386438,5.82095611 37.7386438,7.87490988 C37.7386438,9.51125479 38.7954499,10.6788551 40.8067905,11.1816902 L42.8522216,11.693048 C44.5311797,12.1106569 45.37492,13.0651914 45.37492,14.4202895 C45.37492,16.2441323 43.832324,17.4543457 41.5567819,17.4543457 C39.4772602,17.4543457 38.1903432,16.4486754 37.8068248,14.5907421 L37.2613765,14.7271042 C37.7045533,16.8151485 39.230104,17.999794 41.5567819,17.999794 C44.1220934,17.999794 45.9203683,16.5594696 45.9203683,14.4202895 C45.9203683,12.8095125 44.9061754,11.624867 42.9885837,11.1475997 L40.9431526,10.6362419 C39.1619229,10.1930652 38.2840921,9.24705327 38.2840921,7.87490988 C38.2840921,6.13629341 39.7073712,4.97721577 41.7954155,4.97721577 C43.5936904,4.97721577 44.7357228,5.82947874 45.2726485,7.53400469 L45.8180968,7.39764261 Z" id="Path"></path>
                <path d="M66.3067113,4.63631058 L66.8521596,4.63631058 C66.681707,1.94315958 64.6618437,0 61.6704007,0 C58.6874803,0 56.4886418,1.92611432 56.4886418,4.4999485 C56.4886418,6.51981175 57.8352173,7.93456829 60.5795041,8.79535389 L62.5567542,9.40898323 C65.3777446,10.2868141 66.5453449,11.4203238 66.5453449,13.2953024 C66.5453449,15.766865 64.5340043,17.4543457 61.5340386,17.4543457 C58.6533898,17.4543457 56.7954565,15.8947045 56.6250039,13.6362076 L56.0795556,13.6362076 C56.2500082,16.2015191 58.3465751,17.999794 61.5340386,17.999794 C64.840819,17.999794 67.0907932,16.0310665 67.0907932,13.2953024 C67.0907932,11.1475997 65.7101272,9.79250157 62.6931163,8.86353493 L60.7158662,8.24990559 C58.210213,7.48286891 57.0340901,6.27265549 57.0340901,4.4999485 C57.0340901,2.2073611 59.0028176,0.545448303 61.6704007,0.545448303 C64.3720743,0.545448303 66.1362587,2.24997425 66.3067113,4.63631058 Z" id="Path"></path>
                <path d="M76.2272204,17.7270699 C81.3493209,17.7270699 84.3237187,14.5055158 84.3407829,8.93171597 C84.3492866,3.50280082 81.485683,0.272724152 76.6703972,0.272724152 L71.6590909,0.272724152 L71.6590909,17.7270699 L76.2272204,17.7270699 Z M72.2045392,17.1816216 L72.2045392,0.818172455 L76.6703972,0.818172455 C81.1959136,0.818172455 83.7782704,3.84370601 83.7953946,8.93171597 C83.8123609,14.1049522 81.0680741,17.1816216 76.2272204,17.1816216 L72.2045392,17.1816216 Z" id="Shape"></path>
                <polygon id="Path" points="88.8068182 17.7270699 89.3522665 17.7270699 89.3522665 12.0339532 91.9772364 9.13625908 99.238517 17.7270699 99.9544179 17.7270699 92.3522322 8.72717285 100.056689 0.272724152 99.306698 0.272724152 89.4204475 11.1475997 89.3522665 11.1475997 89.3522665 0.272724152 88.8068182 0.272724152"></polygon>
            </g>
        </g>
    </g>
</svg>