<?xml version="1.0" encoding="UTF-8"?>
<svg width="207px" height="33px" viewBox="0 0 207 33" version="1.1" xmlns="http://www.w3.org/2000/svg" xmlns:xlink="http://www.w3.org/1999/xlink">
    <title>Untitled 5</title>
    <g id="Page-1" stroke="none" stroke-width="1" fill="none" fill-rule="evenodd">
        <g id="logo" transform="translate(0.500000, 0.000000)" fill="#0DBD8B">
            <path d="M15.2197,30.4395 C23.6254,30.4395 30.4395,23.6254 30.4395,15.2197 C30.4395,6.81411 23.6254,0 15.2197,0 C6.8141,0 0,6.81411 0,15.2197 C0,23.6254 6.8141,30.4395 15.2197,30.4395 Z M12.4374,7.09153 C12.4374,6.47719 12.9365,5.97917 13.5521,5.97917 C17.7246,5.97917 21.1071,9.35464 21.1071,13.5185 C21.1071,14.1329 20.608,14.6309 19.9924,14.6309 C19.3768,14.6309 18.8777,14.1329 18.8777,13.5185 C18.8777,10.5833 16.4934,8.2039 13.5521,8.2039 C12.9365,8.2039 12.4374,7.70588 12.4374,7.09153 Z M24.4597,13.5185 C24.4597,12.9042 23.9607,12.4062 23.345,12.4062 C22.7294,12.4062 22.2303,12.9042 22.2303,13.5185 C22.2303,16.4537 19.846,18.8331 16.9047,18.8331 C16.2891,18.8331 15.79,19.3312 15.79,19.9455 C15.79,20.5598 16.2891,21.0579 16.9047,21.0579 C21.0772,21.0579 24.4597,17.6824 24.4597,13.5185 Z M18.0202,23.3479 C18.0202,23.9623 17.5212,24.4603 16.9056,24.4603 C12.733,24.4603 9.3505,21.0848 9.3505,16.9209 C9.3505,16.3066 9.8496,15.8086 10.4652,15.8086 C11.0808,15.8086 11.5799,16.3066 11.5799,16.9209 C11.5799,19.8561 13.9643,22.2356 16.9056,22.2356 C17.5212,22.2356 18.0202,22.7336 18.0202,23.3479 Z M5.9791,16.9209 C5.9791,17.5352 6.4782,18.0333 7.0938,18.0333 C7.7094,18.0333 8.2085,17.5352 8.2085,16.9209 C8.2085,13.9857 10.5929,11.6063 13.5341,11.6063 C14.1498,11.6063 14.6488,11.1083 14.6488,10.4939 C14.6488,9.87957 14.1498,9.38154 13.5341,9.38154 C9.3616,9.38154 5.9791,12.757 5.9791,16.9209 Z" id="Shape"></path>
        </g>
        <g id="Files-SDK" transform="translate(40.318155, 6.298498)" fill="#000000" fill-rule="nonzero">
            <polygon id="Path" points="0 17.701502 1.59373176 17.701502 1.59373176 9.68170738 9.30671167 9.68170738 9.30671167 8.24990559 1.59373176 8.24990559 1.59373176 1.67895806 10.0993162 1.67895806 10.0993162 0.247156262 0 0.247156262"></polygon>
            <path d="M13.7727307,17.701502 L15.2982814,17.701502 L15.2982814,4.61074269 L13.7727307,4.61074269 L13.7727307,17.701502 Z M14.54829,2.36076844 C15.170442,2.36076844 15.6903224,1.86645591 15.6903224,1.26987183 C15.6903224,0.673287749 15.170442,0.178975224 14.54829,0.178975224 C13.926138,0.178975224 13.4147802,0.673287749 13.4147802,1.26987183 C13.4147802,1.86645591 13.926138,2.36076844 14.54829,2.36076844 Z" id="Shape"></path>
            <polygon id="Path" points="20.8380544 0.247156262 19.3210263 0.247156262 19.3210263 17.701502 20.8380544 17.701502"></polygon>
            <path d="M30.1363067,17.9742261 C32.7612766,17.9742261 34.525461,16.550947 35.1220451,14.9060794 L33.6817206,14.4373348 C33.1788855,15.6134577 31.99424,16.5850375 30.1363067,16.5850375 C27.4602009,16.5850375 25.7641976,14.6333553 25.6960166,11.6078217 L35.445905,11.6078217 L35.445905,10.8578303 C35.445905,6.48572123 32.7442314,4.43176746 29.9061957,4.43176746 C26.514189,4.43176746 24.1704659,7.26980317 24.1704659,11.232826 C24.1704659,15.2043715 26.4715759,17.9742261 30.1363067,17.9742261 Z M25.7045392,10.2697688 C25.8664692,7.83229673 27.5113367,5.81243348 29.9061957,5.81243348 C32.2499189,5.81243348 33.8947864,7.74707043 33.8947864,10.2697688 L25.7045392,10.2697688 Z" id="Shape"></path>
            <path d="M47.5737666,7.48286891 C46.9345694,5.59084511 45.5368581,4.43176746 43.1419991,4.43176746 C40.4999839,4.43176746 38.5823922,5.94027293 38.5823922,8.09649825 C38.5823922,9.85215998 39.6477209,11.0453281 41.9232631,11.5907764 L44.0624431,12.1021342 C45.5027676,12.4430394 46.1931006,13.1845082 46.1931006,14.2327917 C46.1931006,15.5964124 44.8891382,16.6106054 42.8777976,16.6106054 C41.0880454,16.6106054 39.9715809,15.8009555 39.6051078,14.2498369 L38.1477381,14.6077874 C38.6079601,16.7895806 40.3380539,17.9742261 42.9033655,17.9742261 C45.7840143,17.9742261 47.7612644,16.389017 47.7612644,14.1646106 C47.7612644,12.4174715 46.6618452,11.2498713 44.4715294,10.7129456 L42.4942793,10.2271557 C40.866457,9.81806946 40.1079429,9.16182697 40.1079429,8.02831721 C40.1079429,6.69878697 41.3778148,5.76982033 43.1419991,5.76982033 C44.9061835,5.76982033 45.7754917,6.69878697 46.1845779,7.87490988 L47.5737666,7.48286891 Z" id="Path"></path>
            <path d="M67.6277325,4.61074269 L69.1703284,4.61074269 C69.0510116,1.96020484 66.7584242,0 63.5113023,0 C60.2897482,0 57.809663,1.93463695 57.809663,4.74710476 C57.809663,6.98855639 59.3948721,8.39479029 62.1306363,9.20444012 L64.2186806,9.81806946 C66.3834285,10.4487441 67.8663661,11.2583939 67.8663661,13.0396235 C67.8663661,15.1361904 65.9658197,16.5424243 63.357895,16.5424243 C61.0056491,16.5424243 59.1647611,15.4089146 58.9943085,13.3379155 L57.3579636,13.3379155 C57.5454615,16.0992476 59.7954357,17.999794 63.357895,17.999794 C67.1419426,17.999794 69.4089621,15.8606139 69.4089621,13.0651914 C69.4089621,10.1674973 66.8862637,9.00841963 64.6703799,8.38626766 L62.8294919,7.85786462 C61.1334886,7.38059735 59.352259,6.51981175 59.352259,4.67892373 C59.352259,2.80394518 61.031217,1.4318018 63.4686891,1.4318018 C65.7783218,1.4318018 67.431712,2.66758311 67.6277325,4.61074269 Z" id="Path"></path>
            <path d="M78.3664188,17.701502 C83.6163587,17.701502 86.6078017,14.4202895 86.6163243,8.93171597 C86.6163243,3.50280082 83.6674944,0.247156262 78.6732334,0.247156262 L73.2528409,0.247156262 L73.2528409,17.701502 L78.3664188,17.701502 Z M74.8465727,16.2697002 L74.8465727,1.67895806 L78.5794845,1.67895806 C82.8152315,1.67895806 85.0652057,4.4147222 85.0737284,8.93171597 C85.0737284,13.4913229 82.7726183,16.2697002 78.2726698,16.2697002 L74.8465727,16.2697002 Z" id="Shape"></path>
            <polygon id="Path" points="90.46875 17.701502 92.0624818 17.701502 92.0624818 12.0339532 94.3891597 9.42602849 100.857836 17.701502 102.800995 17.701502 95.3777847 8.31808662 102.835086 0.247156262 100.738519 0.247156262 92.2158891 9.64761686 92.0624818 9.64761686 92.0624818 0.247156262 90.46875 0.247156262"></polygon>
        </g>
    </g>
</svg>